# xmcd
# Track frame offsets:
# 150
# 26845
# 50258
# 71752
# 89195
# 114321
# 134187
# 156588
# 176448
# 203138
#
# Disc length: 2922 seconds
# Revision: 0
# Processed by: cddbd v1.5.1PL0 Copyright (c) Steve Scherf et al.
# Submitted via: VisiTrax 2.9.10.220 - For more info visit www.synapsa.com
#
DISCID=980b680a
DTITLE=Blue Thunder - Blues and Beyond
DYEAR=1996
DGENRE=
TTITLE0=Win Or Lose
TTITLE1=Fool To Yourself
TTITLE2=Give Me This News
TTITLE3=Woman Of Mine
TTITLE4=Going Back
TTITLE5=Running Blue
TTITLE6=Gin House
TTITLE7=Circle Of Light
TTITLE8=Live With The Blues
TTITLE9=Lay down Your Arms
EXTD=
EXTT0=
EXTT1=
EXTT2=
EXTT3=
EXTT4=
EXTT5=
EXTT6=
EXTT7=
EXTT8=
EXTT9=
PLAYORDER=
